<svg xmlns="http://www.w3.org/2000/svg" viewBox="0 0 530.68 66.32"><defs><style>.cls-1,.cls-4{fill:#21443e;}.cls-2{fill:#2c803f;}.cls-2,.cls-3,.cls-4{fill-rule:evenodd;}.cls-3{fill:#779e28;}.cls-5{fill:#633f00;}</style></defs><title>logo</title><g id="company_name" data-name="company name"><g id="SEPHARDIC_TREE" data-name="SEPHARDIC TREE"><path class="cls-1" d="M377.65,363.8a16.3,16.3,0,0,0,8.25,2.33c4.7,0,7.45-2.48,7.45-6.08,0-3.33-1.9-5.23-6.71-7.08-5.82-2.06-9.41-5.08-9.41-10.1,0-5.55,4.6-9.67,11.52-9.67a16.32,16.32,0,0,1,7.88,1.74l-1.27,3.76a14.11,14.11,0,0,0-6.77-1.69c-4.86,0-6.71,2.9-6.71,5.33,0,3.33,2.17,5,7.08,6.88,6,2.32,9.09,5.23,9.09,10.46,0,5.5-4.07,10.26-12.47,10.26a18.37,18.37,0,0,1-9.09-2.28Z" transform="translate(-252.74 -320.41)"/><path class="cls-1" d="M422.79,352.7H408.94v12.85h15.44v3.86h-20V333.78h19.24v3.86H408.94V348.9h13.85Z" transform="translate(-252.74 -320.41)"/><path class="cls-1" d="M430.35,334.2a53.46,53.46,0,0,1,8.83-.68c4.55,0,7.88,1.05,10,3a9.59,9.59,0,0,1,3.12,7.45,10.48,10.48,0,0,1-2.75,7.61c-2.43,2.59-6.4,3.91-10.89,3.91a16.13,16.13,0,0,1-3.7-.31v14.27h-4.6Zm4.6,17.18a15.18,15.18,0,0,0,3.81.37c5.55,0,8.93-2.69,8.93-7.61,0-4.7-3.33-7-8.4-7a19.42,19.42,0,0,0-4.34.37Z" transform="translate(-252.74 -320.41)"/><path class="cls-1" d="M463.07,333.78v14.91H480.3V333.78H485v35.63H480.3V352.7H463.07v16.71h-4.6V333.78Z" transform="translate(-252.74 -320.41)"/><path class="cls-1" d="M498.7,358.2,495,369.41h-4.76l12.11-35.63h5.55l12.15,35.63h-4.91l-3.81-11.21Zm11.68-3.59-3.49-10.26c-.79-2.32-1.32-4.44-1.85-6.5h-.1c-.53,2.12-1.11,4.28-1.8,6.45l-3.49,10.31Z" transform="translate(-252.74 -320.41)"/><path class="cls-1" d="M525.29,334.26a47.6,47.6,0,0,1,8.83-.74c4.91,0,8.08.9,10.3,2.9a8.88,8.88,0,0,1,2.81,6.77,9.36,9.36,0,0,1-6.72,9.09v.16c2.75.95,4.39,3.49,5.24,7.19,1.16,5,2,8.4,2.74,9.78h-4.75c-.59-1-1.38-4.07-2.38-8.51-1.06-4.92-3-6.77-7.14-6.93h-4.33v15.44h-4.6Zm4.6,16.22h4.7c4.92,0,8-2.69,8-6.76,0-4.6-3.33-6.61-8.2-6.66a19,19,0,0,0-4.54.42Z" transform="translate(-252.74 -320.41)"/><path class="cls-1" d="M553.73,334.26a64.89,64.89,0,0,1,9.78-.74c6.6,0,11.31,1.53,14.43,4.44s5,7,5,12.79-1.8,10.57-5.13,13.85-8.83,5.12-15.75,5.12a72.83,72.83,0,0,1-8.35-.42Zm4.6,31.5A29.21,29.21,0,0,0,563,366c9.83,0,15.17-5.49,15.17-15.11.05-8.41-4.71-13.75-14.43-13.75a26.3,26.3,0,0,0-5.39.48Z" transform="translate(-252.74 -320.41)"/><path class="cls-1" d="M593.53,333.78v35.63h-4.6V333.78Z" transform="translate(-252.74 -320.41)"/><path class="cls-1" d="M626.46,368.24a22.71,22.71,0,0,1-9.41,1.7c-10,0-17.6-6.35-17.6-18,0-11.15,7.56-18.71,18.61-18.71a18.93,18.93,0,0,1,8.45,1.59l-1.1,3.75a16.71,16.71,0,0,0-7.19-1.48c-8.35,0-13.9,5.34-13.9,14.69,0,8.72,5,14.33,13.68,14.33a18.37,18.37,0,0,0,7.51-1.48Z" transform="translate(-252.74 -320.41)"/><path class="cls-1" d="M648,337.69H637.2v-3.91h26.37v3.91H652.68v31.72H648Z" transform="translate(-252.74 -320.41)"/><path class="cls-1" d="M667.54,334.26a47.41,47.41,0,0,1,8.82-.74c4.92,0,8.09.9,10.31,2.9a8.88,8.88,0,0,1,2.8,6.77,9.36,9.36,0,0,1-6.71,9.09v.16c2.75.95,4.39,3.49,5.23,7.19,1.17,5,2,8.4,2.75,9.78H686c-.58-1-1.37-4.07-2.37-8.51-1.06-4.92-3-6.77-7.14-6.93h-4.34v15.44h-4.59Zm4.59,16.22h4.71c4.91,0,8-2.69,8-6.76,0-4.6-3.33-6.61-8.19-6.66a19.15,19.15,0,0,0-4.55.42Z" transform="translate(-252.74 -320.41)"/><path class="cls-1" d="M714.42,352.7H700.57v12.85H716v3.86H696V333.78h19.24v3.86H700.57V348.9h13.85Z" transform="translate(-252.74 -320.41)"/><path class="cls-1" d="M740.43,352.7H726.58v12.85H742v3.86H722V333.78h19.24v3.86H726.58V348.9h13.85Z" transform="translate(-252.74 -320.41)"/></g></g><g id="LOGO"><rect class="cls-1" y="64.46" width="63.44" height="1.86"/><path class="cls-2" d="M304.82,356.72a3.09,3.09,0,0,0,3.65-.86c-1.4-.79-2.81-.89-3.73.57.95-.59,1.63-1,2.74-.53A4,4,0,0,0,304.82,356.72Z" transform="translate(-252.74 -320.41)"/><path class="cls-2" d="M305.42,354.21a3.1,3.1,0,0,0,3.65-.86c-1.41-.79-2.82-.89-3.74.57,1-.59,1.63-1,2.74-.53A4,4,0,0,0,305.42,354.21Z" transform="translate(-252.74 -320.41)"/><path class="cls-2" d="M305.86,351a3.1,3.1,0,0,0,3.23-1.91c-1.58-.33-3,0-3.4,1.66.74-.84,1.26-1.43,2.46-1.32A4,4,0,0,0,305.86,351Z" transform="translate(-252.74 -320.41)"/><path class="cls-2" d="M309.49,344.67a3.11,3.11,0,0,0,3.75-.24c-1.26-1-2.63-1.35-3.78-.06,1-.42,1.77-.71,2.79-.07A4.08,4.08,0,0,0,309.49,344.67Z" transform="translate(-252.74 -320.41)"/><path class="cls-2" d="M298.39,364.81a3.1,3.1,0,0,0,3.68.68c-1-1.29-2.22-1.95-3.65-1,1.12-.16,1.9-.26,2.73.61A4,4,0,0,0,298.39,364.81Z" transform="translate(-252.74 -320.41)"/><path class="cls-3" d="M299.6,375.87a3.09,3.09,0,0,0,2.14,3.07c.22-1.59-.2-2.94-1.9-3.26.9.67,1.53,1.15,1.5,2.35A4,4,0,0,0,299.6,375.87Z" transform="translate(-252.74 -320.41)"/><path class="cls-2" d="M307.12,346.85a3.08,3.08,0,0,0,3.68.69c-1-1.29-2.22-2-3.64-1,1.11-.16,1.89-.26,2.72.61A4.11,4.11,0,0,0,307.12,346.85Z" transform="translate(-252.74 -320.41)"/><path class="cls-2" d="M311.91,346.52a3.09,3.09,0,0,0,3.38,1.61c-.6-1.49-1.64-2.46-3.27-1.89,1.12.14,1.9.24,2.47,1.3A4,4,0,0,0,311.91,346.52Z" transform="translate(-252.74 -320.41)"/><path class="cls-3" d="M297.42,359.39a3.09,3.09,0,0,0,2.48-2.81c-1.61.17-2.82.9-2.72,2.62.44-1,.75-1.75,1.93-2A4,4,0,0,0,297.42,359.39Z" transform="translate(-252.74 -320.41)"/><path class="cls-2" d="M299.17,351.2a3.08,3.08,0,0,0,2.48-2.81c-1.6.17-2.81.9-2.72,2.63.44-1,.76-1.76,1.93-2A4,4,0,0,0,299.17,351.2Z" transform="translate(-252.74 -320.41)"/><path class="cls-2" d="M306.3,344.86a3.1,3.1,0,0,0,2.48-2.81c-1.61.17-2.82.9-2.72,2.62.44-1,.75-1.75,1.93-2A4,4,0,0,0,306.3,344.86Z" transform="translate(-252.74 -320.41)"/><path class="cls-2" d="M291.84,329.62a3.08,3.08,0,0,0,3.31-1.75c-1.56-.41-2.95-.16-3.47,1.49.78-.81,1.33-1.37,2.52-1.2A4,4,0,0,0,291.84,329.62Z" transform="translate(-252.74 -320.41)"/><path class="cls-2" d="M299,328.25a3.1,3.1,0,0,0,3.32-1.75c-1.56-.41-2.95-.16-3.47,1.49.77-.81,1.33-1.37,2.52-1.2A4,4,0,0,0,299,328.25Z" transform="translate(-252.74 -320.41)"/><path class="cls-2" d="M292.88,327a3.08,3.08,0,0,0,3.31-1.75c-1.56-.41-2.95-.15-3.47,1.49.78-.81,1.33-1.37,2.52-1.2A4,4,0,0,0,292.88,327Z" transform="translate(-252.74 -320.41)"/><path class="cls-2" d="M307.77,334.55a3.08,3.08,0,0,0,3.54-1.23c-1.49-.64-2.9-.59-3.66.95.89-.68,1.52-1.15,2.67-.81A4,4,0,0,0,307.77,334.55Z" transform="translate(-252.74 -320.41)"/><path class="cls-2" d="M292.3,336.67a3.07,3.07,0,0,0,2.48-2.81c-1.6.17-2.81.91-2.72,2.63.44-1,.76-1.76,1.93-2A4,4,0,0,0,292.3,336.67Z" transform="translate(-252.74 -320.41)"/><path class="cls-2" d="M298.33,335.23a3.1,3.1,0,0,0,2.48-2.81c-1.6.17-2.82.9-2.72,2.62.44-1,.76-1.75,1.93-2A4,4,0,0,0,298.33,335.23Z" transform="translate(-252.74 -320.41)"/><path class="cls-2" d="M304,341.15a3.09,3.09,0,0,0,2.48-2.81c-1.6.17-2.81.9-2.72,2.62.44-1,.76-1.75,1.93-2A4,4,0,0,0,304,341.15Z" transform="translate(-252.74 -320.41)"/><path class="cls-2" d="M304.71,334.05a3.1,3.1,0,0,0,3.11-2.1c-1.6-.24-3,.17-3.3,1.86.69-.89,1.18-1.51,2.38-1.47A4,4,0,0,0,304.71,334.05Z" transform="translate(-252.74 -320.41)"/><path class="cls-3" d="M302,333.84a3.07,3.07,0,0,0,2.48-2.81c-1.6.17-2.81.91-2.72,2.63.44-1,.76-1.76,1.93-2A4,4,0,0,0,302,333.84Z" transform="translate(-252.74 -320.41)"/><path class="cls-2" d="M307.62,339a3.07,3.07,0,0,0,2.48-2.81c-1.6.17-2.81.9-2.72,2.63.44-1,.76-1.76,1.93-2A4,4,0,0,0,307.62,339Z" transform="translate(-252.74 -320.41)"/><path class="cls-2" d="M288.82,361.64a3.09,3.09,0,0,0,2.48-2.81c-1.61.17-2.82.9-2.72,2.62.44-1,.76-1.75,1.93-2A4,4,0,0,0,288.82,361.64Z" transform="translate(-252.74 -320.41)"/><path class="cls-2" d="M276.61,358.45a3.09,3.09,0,0,0,.48-3.72c-1.23,1-1.82,2.33-.78,3.7-.21-1.1-.36-1.87.47-2.75A4,4,0,0,0,276.61,358.45Z" transform="translate(-252.74 -320.41)"/><path class="cls-2" d="M288.2,347.9a3.1,3.1,0,0,0,2.48-2.81c-1.61.17-2.82.9-2.72,2.62.44-1,.75-1.75,1.93-2A4,4,0,0,0,288.2,347.9Z" transform="translate(-252.74 -320.41)"/><path class="cls-2" d="M290.28,332.14a3.09,3.09,0,0,0,3.69-.66c-1.36-.87-2.77-1-3.76.37,1-.54,1.68-.91,2.77-.39A4.07,4.07,0,0,0,290.28,332.14Z" transform="translate(-252.74 -320.41)"/><path class="cls-2" d="M293.08,359.43a3.08,3.08,0,0,1-1.52-3.43c1.48.65,2.41,1.71,1.8,3.33-.11-1.12-.19-1.91-1.23-2.51A4.07,4.07,0,0,1,293.08,359.43Z" transform="translate(-252.74 -320.41)"/><path class="cls-2" d="M302.13,354.61a3.1,3.1,0,0,1-1.52-3.43c1.48.65,2.41,1.71,1.8,3.33-.1-1.12-.19-1.9-1.23-2.51A4,4,0,0,1,302.13,354.61Z" transform="translate(-252.74 -320.41)"/><path class="cls-2" d="M288.68,352.17a3.06,3.06,0,0,1-1.51-3.42c1.47.64,2.41,1.7,1.8,3.32-.11-1.12-.19-1.9-1.23-2.51A4,4,0,0,1,288.68,352.17Z" transform="translate(-252.74 -320.41)"/><path class="cls-2" d="M290.9,336.51a3.06,3.06,0,0,1-1.51-3.42c1.47.64,2.41,1.71,1.8,3.32-.11-1.12-.19-1.9-1.23-2.51A4.06,4.06,0,0,1,290.9,336.51Z" transform="translate(-252.74 -320.41)"/><path class="cls-2" d="M290.29,328.3a3.08,3.08,0,0,1-1.52-3.42c1.48.64,2.41,1.71,1.8,3.32-.1-1.12-.19-1.9-1.23-2.51A4.07,4.07,0,0,1,290.29,328.3Z" transform="translate(-252.74 -320.41)"/><path class="cls-2" d="M278.73,324a3.1,3.1,0,0,1-2.33-2.94c1.59.26,2.76,1,2.58,2.77-.39-1.06-.67-1.8-1.83-2.12A4,4,0,0,1,278.73,324Z" transform="translate(-252.74 -320.41)"/><path class="cls-2" d="M279.09,327.27a3.08,3.08,0,0,1-2.32-2.94c1.59.26,2.76,1.05,2.57,2.77-.38-1.06-.66-1.8-1.82-2.12A4,4,0,0,1,279.09,327.27Z" transform="translate(-252.74 -320.41)"/><path class="cls-2" d="M279.66,330a3.1,3.1,0,0,1-3.17-2c1.59-.28,3,.08,3.35,1.76-.71-.87-1.22-1.47-2.42-1.4A4,4,0,0,1,279.66,330Z" transform="translate(-252.74 -320.41)"/><path class="cls-2" d="M271.58,330.65a3.08,3.08,0,0,1-3.16-2c1.58-.28,2.95.08,3.34,1.76-.71-.87-1.22-1.47-2.42-1.4A4,4,0,0,1,271.58,330.65Z" transform="translate(-252.74 -320.41)"/><path class="cls-2" d="M269.11,336.69a3.08,3.08,0,0,1-2.31-3c1.59.27,2.75,1.07,2.56,2.79-.38-1.06-.65-1.8-1.81-2.13A4,4,0,0,1,269.11,336.69Z" transform="translate(-252.74 -320.41)"/><path class="cls-2" d="M259.67,334a3.1,3.1,0,0,1-2.31-3c1.59.27,2.76,1.07,2.56,2.78-.37-1-.65-1.79-1.8-2.12A4.06,4.06,0,0,1,259.67,334Z" transform="translate(-252.74 -320.41)"/><path class="cls-2" d="M268.86,332.88a3.09,3.09,0,0,1-2.31-2.95c1.59.26,2.76,1.06,2.56,2.78-.38-1.06-.65-1.8-1.81-2.13A4,4,0,0,1,268.86,332.88Z" transform="translate(-252.74 -320.41)"/><path class="cls-2" d="M271.31,327.43a3.1,3.1,0,0,1-2.31-2.95c1.59.27,2.76,1.07,2.56,2.78-.38-1.05-.65-1.79-1.81-2.12A4,4,0,0,1,271.31,327.43Z" transform="translate(-252.74 -320.41)"/><path class="cls-2" d="M279.85,333a3.09,3.09,0,0,1-3.17-2c1.59-.28,3,.08,3.34,1.76-.71-.87-1.21-1.47-2.41-1.4A4.07,4.07,0,0,1,279.85,333Z" transform="translate(-252.74 -320.41)"/><path class="cls-2" d="M280.13,335.39a3.09,3.09,0,0,1-3.75-.13c1.22-1.05,2.59-1.43,3.77-.17-1-.39-1.79-.66-2.79,0A4,4,0,0,1,280.13,335.39Z" transform="translate(-252.74 -320.41)"/><path class="cls-2" d="M260.84,335.65a3.08,3.08,0,0,1-3.75-.12c1.23-1,2.59-1.43,3.78-.18-1.05-.39-1.8-.65-2.79,0A4.05,4.05,0,0,1,260.84,335.65Z" transform="translate(-252.74 -320.41)"/><path class="cls-3" d="M261.41,338a3.08,3.08,0,0,1-3.74-.13c1.22-1.05,2.59-1.42,3.77-.17-1.05-.39-1.79-.66-2.79,0A4,4,0,0,1,261.41,338Z" transform="translate(-252.74 -320.41)"/><path class="cls-2" d="M263,341.42a3.09,3.09,0,0,1-3.4-1.56c1.53-.5,2.94-.32,3.55,1.29-.82-.76-1.4-1.29-2.58-1.06A4,4,0,0,1,263,341.42Z" transform="translate(-252.74 -320.41)"/><path class="cls-2" d="M265.11,343.3a3.09,3.09,0,0,1-3.52,1.3c.74-1.43,1.86-2.3,3.43-1.59-1.12,0-1.91.07-2.58,1.08A4.05,4.05,0,0,1,265.11,343.3Z" transform="translate(-252.74 -320.41)"/><path class="cls-3" d="M266.23,351a3.07,3.07,0,0,1-3.51,1.3c.73-1.43,1.85-2.3,3.43-1.58-1.13,0-1.91.07-2.58,1.07A4,4,0,0,1,266.23,351Z" transform="translate(-252.74 -320.41)"/><path class="cls-2" d="M271.88,356.27a3.09,3.09,0,0,1-3.51,1.3c.74-1.43,1.85-2.3,3.43-1.59-1.12,0-1.91.07-2.58,1.07A4.06,4.06,0,0,1,271.88,356.27Z" transform="translate(-252.74 -320.41)"/><path class="cls-3" d="M264.7,374.74a3.1,3.1,0,0,1-3.52,1.3c.74-1.44,1.86-2.3,3.43-1.59-1.12,0-1.91.07-2.58,1.07A4,4,0,0,1,264.7,374.74Z" transform="translate(-252.74 -320.41)"/><path class="cls-2" d="M257,344.22a3.08,3.08,0,0,1-3.6-1c1.44-.72,2.86-.75,3.7.76-.92-.64-1.58-1.08-2.71-.67A4.05,4.05,0,0,1,257,344.22Z" transform="translate(-252.74 -320.41)"/><path class="cls-2" d="M257.71,352.43a3.08,3.08,0,0,1-1.87-3.24c1.54.48,2.58,1.44,2.14,3.11-.22-1.1-.39-1.87-1.49-2.36A4,4,0,0,1,257.71,352.43Z" transform="translate(-252.74 -320.41)"/><path class="cls-2" d="M263.87,348.85a3.08,3.08,0,0,1-3.6-1c1.44-.72,2.86-.75,3.7.76-.92-.64-1.58-1.08-2.71-.67A4,4,0,0,1,263.87,348.85Z" transform="translate(-252.74 -320.41)"/><path class="cls-2" d="M257.48,354.47a3.1,3.1,0,0,1-3.68.71c1-1.3,2.21-2,3.65-1-1.12-.15-1.9-.24-2.72.64A4,4,0,0,1,257.48,354.47Z" transform="translate(-252.74 -320.41)"/><path class="cls-2" d="M260.58,356.12a3.1,3.1,0,0,1-3.68.71c1-1.3,2.21-2,3.65-1-1.12-.14-1.9-.24-2.72.64A4,4,0,0,1,260.58,356.12Z" transform="translate(-252.74 -320.41)"/><path class="cls-2" d="M262.92,359.72a3.09,3.09,0,0,1-3.6-1c1.44-.72,2.86-.76,3.7.75-.92-.64-1.58-1.08-2.71-.67A4.05,4.05,0,0,1,262.92,359.72Z" transform="translate(-252.74 -320.41)"/><path class="cls-2" d="M268.34,346.53a3.07,3.07,0,0,1-3.45-1.46c1.51-.54,2.92-.4,3.58,1.19-.84-.74-1.44-1.25-2.61-1A4,4,0,0,1,268.34,346.53Z" transform="translate(-252.74 -320.41)"/><path class="cls-2" d="M281.25,360.57a3.1,3.1,0,0,1-3.45-1.46c1.52-.54,2.92-.41,3.58,1.19-.84-.74-1.44-1.26-2.61-1A4,4,0,0,1,281.25,360.57Z" transform="translate(-252.74 -320.41)"/><path class="cls-2" d="M281.66,341.69a3.09,3.09,0,0,1-3.75-.13c1.23-1,2.59-1.42,3.78-.17-1.06-.39-1.8-.66-2.79,0A4,4,0,0,1,281.66,341.69Z" transform="translate(-252.74 -320.41)"/><path class="cls-2" d="M291.37,325.36a3.1,3.1,0,0,1-1.52-3.43c1.48.65,2.41,1.71,1.8,3.33-.1-1.12-.19-1.91-1.23-2.51A4.07,4.07,0,0,1,291.37,325.36Z" transform="translate(-252.74 -320.41)"/><path class="cls-2" d="M293.56,343a3.09,3.09,0,0,1-1.52-3.43c1.48.65,2.41,1.71,1.8,3.33-.11-1.12-.19-1.9-1.23-2.51A4.07,4.07,0,0,1,293.56,343Z" transform="translate(-252.74 -320.41)"/><path class="cls-2" d="M284.79,329.19a3.08,3.08,0,0,0,1.52-3.43c-1.48.65-2.41,1.71-1.8,3.32.11-1.11.19-1.9,1.23-2.5A4.07,4.07,0,0,0,284.79,329.19Z" transform="translate(-252.74 -320.41)"/><path class="cls-2" d="M283.26,335.9a3.1,3.1,0,0,0,.7-3.69c-1.29,1-2,2.22-1,3.65-.15-1.11-.24-1.89.63-2.72A4,4,0,0,0,283.26,335.9Z" transform="translate(-252.74 -320.41)"/><path class="cls-2" d="M278.16,340.16A3.08,3.08,0,0,0,280,336.9c-1.53.5-2.57,1.46-2.11,3.13.21-1.1.37-1.87,1.46-2.37A4,4,0,0,0,278.16,340.16Z" transform="translate(-252.74 -320.41)"/><path class="cls-2" d="M277.54,345.89a3.07,3.07,0,0,0,2.5-2.79c-1.6.16-2.82.88-2.73,2.61.44-1,.76-1.75,1.94-2A4.14,4.14,0,0,0,277.54,345.89Z" transform="translate(-252.74 -320.41)"/><path class="cls-3" d="M275.15,340.34a3.09,3.09,0,0,0,.48-3.72c-1.23,1-1.83,2.33-.78,3.7-.22-1.1-.36-1.88.47-2.75A4,4,0,0,0,275.15,340.34Z" transform="translate(-252.74 -320.41)"/><path class="cls-2" d="M273.39,336.06a3.07,3.07,0,0,0,2.49-2.79c-1.6.16-2.82.88-2.73,2.61.44-1,.76-1.75,1.94-2A4.07,4.07,0,0,0,273.39,336.06Z" transform="translate(-252.74 -320.41)"/><path class="cls-2" d="M263.43,337.43a3.09,3.09,0,0,0,2.5-2.8c-1.61.16-2.82.89-2.74,2.61.45-1,.77-1.75,1.94-2A4,4,0,0,0,263.43,337.43Z" transform="translate(-252.74 -320.41)"/><path class="cls-2" d="M259.55,353.45a3.09,3.09,0,0,0,2.49-2.8c-1.6.16-2.82.89-2.73,2.61.44-1,.77-1.75,1.94-2A4.06,4.06,0,0,0,259.55,353.45Z" transform="translate(-252.74 -320.41)"/><path class="cls-2" d="M262.65,355.13a3.08,3.08,0,0,0,3.31-1.77c-1.57-.39-3-.13-3.47,1.52.77-.82,1.32-1.38,2.51-1.22A4,4,0,0,0,262.65,355.13Z" transform="translate(-252.74 -320.41)"/><path class="cls-2" d="M262.25,335.23a3.09,3.09,0,0,0,2.5-2.79c-1.61.16-2.82.88-2.74,2.61.45-1,.77-1.75,1.94-2A4,4,0,0,0,262.25,335.23Z" transform="translate(-252.74 -320.41)"/><path class="cls-3" d="M273.42,332.06a3.09,3.09,0,0,0,2.5-2.79c-1.61.16-2.82.88-2.74,2.61.45-1,.77-1.75,1.94-2A4,4,0,0,0,273.42,332.06Z" transform="translate(-252.74 -320.41)"/><path class="cls-2" d="M273.09,328.21a3.1,3.1,0,0,0,3.12-2.08c-1.59-.25-2.95.15-3.3,1.84.69-.89,1.18-1.5,2.39-1.46A4.06,4.06,0,0,0,273.09,328.21Z" transform="translate(-252.74 -320.41)"/><path class="cls-2" d="M272.74,326a3.08,3.08,0,0,0,.7-3.68c-1.29,1-2,2.21-1,3.64-.14-1.11-.24-1.89.64-2.71A4,4,0,0,0,272.74,326Z" transform="translate(-252.74 -320.41)"/><path class="cls-2" d="M267.35,341.7a3.09,3.09,0,0,1-2.35-2.92c1.59.24,2.77,1,2.6,2.74-.4-1-.68-1.78-1.84-2.1A4,4,0,0,1,267.35,341.7Z" transform="translate(-252.74 -320.41)"/><path class="cls-2" d="M279,347.89a3.09,3.09,0,0,0,2.5-2.79c-1.61.16-2.82.88-2.74,2.6.45-1,.77-1.75,1.95-2A4,4,0,0,0,279,347.89Z" transform="translate(-252.74 -320.41)"/><path class="cls-3" d="M281.91,327.12a3.08,3.08,0,0,0,1.52-3.42c-1.48.64-2.42,1.71-1.8,3.32.1-1.12.19-1.9,1.23-2.5A4,4,0,0,0,281.91,327.12Z" transform="translate(-252.74 -320.41)"/><path class="cls-2" d="M281,323.1a3.07,3.07,0,0,0,2.61-2.69c-1.61.1-2.85.77-2.84,2.5.49-1,.84-1.72,2-1.93A4.06,4.06,0,0,0,281,323.1Z" transform="translate(-252.74 -320.41)"/><path class="cls-2" d="M292.91,324.35a3.11,3.11,0,0,0,2.62-2.69c-1.61.09-2.86.77-2.85,2.49.49-1,.84-1.72,2-1.92A4,4,0,0,0,292.91,324.35Z" transform="translate(-252.74 -320.41)"/><path class="cls-2" d="M297.07,335.06a3.09,3.09,0,0,1-1.52-3.43c1.48.64,2.41,1.71,1.8,3.32-.11-1.12-.19-1.9-1.23-2.5A4,4,0,0,1,297.07,335.06Z" transform="translate(-252.74 -320.41)"/><path class="cls-3" d="M300,343.75a3.08,3.08,0,0,1-1.52-3.43c1.48.65,2.41,1.71,1.8,3.33-.11-1.12-.19-1.9-1.23-2.51A4.07,4.07,0,0,1,300,343.75Z" transform="translate(-252.74 -320.41)"/><path class="cls-2" d="M303.47,351.32a3.08,3.08,0,0,1-.43-3.72c1.22,1.06,1.8,2.35.73,3.71.23-1.1.38-1.87-.43-2.76A4,4,0,0,1,303.47,351.32Z" transform="translate(-252.74 -320.41)"/><path class="cls-2" d="M294.74,340.07a3.08,3.08,0,0,1-.43-3.72c1.22,1.06,1.79,2.35.73,3.71.23-1.1.38-1.87-.43-2.76A4,4,0,0,1,294.74,340.07Z" transform="translate(-252.74 -320.41)"/><path class="cls-2" d="M301.53,361.09a3.09,3.09,0,0,0,2.65,2.65c-.07-1.61-.73-2.86-2.45-2.87,1,.5,1.7.86,1.89,2.05A4,4,0,0,0,301.53,361.09Z" transform="translate(-252.74 -320.41)"/><path class="cls-2" d="M267.17,361.93a3.09,3.09,0,0,1-2.65,2.65c.07-1.61.73-2.87,2.45-2.87-1,.5-1.7.86-1.89,2A4,4,0,0,1,267.17,361.93Z" transform="translate(-252.74 -320.41)"/><path class="cls-2" d="M271.6,363.11A3.09,3.09,0,0,1,268,364c.91-1.33,2.13-2,3.6-1.14-1.12-.11-1.9-.18-2.69.73A4.07,4.07,0,0,1,271.6,363.11Z" transform="translate(-252.74 -320.41)"/><path class="cls-2" d="M273.83,367.53a3.08,3.08,0,0,1-3.72.43c1.05-1.22,2.34-1.79,3.7-.73-1.1-.23-1.87-.38-2.75.43A4,4,0,0,1,273.83,367.53Z" transform="translate(-252.74 -320.41)"/><path class="cls-2" d="M277.09,369.21a3.08,3.08,0,0,1-3.18,2c.43-1.55,1.35-2.62,3-2.24-1.1.26-1.86.45-2.31,1.57A4.06,4.06,0,0,1,277.09,369.21Z" transform="translate(-252.74 -320.41)"/><path class="cls-2" d="M302.67,336.62a3.09,3.09,0,0,0,3.75,0c-1.2-1.08-2.56-1.49-3.77-.26,1.06-.37,1.8-.62,2.79.08A4,4,0,0,0,302.67,336.62Z" transform="translate(-252.74 -320.41)"/><path class="cls-2" d="M312.13,339a3.08,3.08,0,0,0,3.74,0c-1.2-1.08-2.55-1.48-3.77-.26,1.06-.36,1.81-.61,2.79.08A4,4,0,0,0,312.13,339Z" transform="translate(-252.74 -320.41)"/><path class="cls-2" d="M308.82,340.92a3.09,3.09,0,0,0,3.71.57c-1-1.26-2.28-1.88-3.68-.87,1.11-.19,1.88-.31,2.74.53A4.06,4.06,0,0,0,308.82,340.92Z" transform="translate(-252.74 -320.41)"/><path class="cls-2" d="M304.82,358.76a3.08,3.08,0,0,0,.69,3.68c.85-1.37,1-2.77-.4-3.75.54,1,.92,1.67.41,2.76A4.1,4.1,0,0,0,304.82,358.76Z" transform="translate(-252.74 -320.41)"/><path class="cls-2" d="M307.39,361.22a3.1,3.1,0,0,0,2.63,2.67c-.06-1.61-.7-2.87-2.43-2.89,1,.5,1.7.87,1.88,2.06A4.07,4.07,0,0,0,307.39,361.22Z" transform="translate(-252.74 -320.41)"/><path class="cls-2" d="M306.79,372.88a3.07,3.07,0,0,0,3.62-1c-1.43-.75-2.84-.81-3.71.68.93-.62,1.6-1,2.72-.61A4,4,0,0,0,306.79,372.88Z" transform="translate(-252.74 -320.41)"/><path class="cls-2" d="M306.58,358.58a3.08,3.08,0,0,0,3.67.75c-.95-1.3-2.18-2-3.63-1.05,1.11-.13,1.9-.22,2.71.67A4,4,0,0,0,306.58,358.58Z" transform="translate(-252.74 -320.41)"/><path class="cls-2" d="M309.81,356.89a3.08,3.08,0,0,0,3.66.79c-.93-1.32-2.16-2-3.62-1.09,1.12-.12,1.9-.2,2.7.7A4,4,0,0,0,309.81,356.89Z" transform="translate(-252.74 -320.41)"/><path class="cls-3" d="M309.33,351.75a3.09,3.09,0,0,0,3.72-.49c-1.32-.92-2.72-1.17-3.78.19,1-.49,1.73-.82,2.78-.25A4,4,0,0,0,309.33,351.75Z" transform="translate(-252.74 -320.41)"/><path class="cls-2" d="M311.47,354.29a3.09,3.09,0,0,0,3.72-.48c-1.32-.93-2.72-1.17-3.78.19,1-.49,1.73-.83,2.78-.25A4,4,0,0,0,311.47,354.29Z" transform="translate(-252.74 -320.41)"/><path class="cls-4" d="M286,385.17c-.09-1.07-.18-2.15-.26-3.23s-.16-1.93-.16-2.89v-.67a8.16,8.16,0,0,1,2.64-5.92c1-.93,2.1-1.94,2.78-2.61a9.11,9.11,0,0,1,1.7-1.16,18,18,0,0,0,4.63-4.19c1.24-1.54,2.5-3.06,3.71-4.63a2.75,2.75,0,0,1,1.4-.82,14.46,14.46,0,0,0,3.15-1.63l-2.14.75c0-.15-.68,0-.69-.06l-1.07.55a2.63,2.63,0,0,1,.79-1.6c.68-.55,2.13-1.61,2.13-1.61a7.14,7.14,0,0,0-2.22,1.26c.67-1.42,1.89-3.74,2.65-5.16,0-.07-.06-.13-.11-.07a37.23,37.23,0,0,0-3.34,5.3c-.58-.71-.42-1.62-.78-2.36a3.31,3.31,0,0,0,.25,1.93,2,2,0,0,1-.31,2.28c-.4.51-.66,1.13-1.09,1.61-1.44,1.61-2.92,3.18-4.4,4.76a5.19,5.19,0,0,1-.55.49.67.67,0,0,0-.14-.09c.31-.95.6-1.9.93-2.84a16.34,16.34,0,0,0,1.08-5.75,4.69,4.69,0,0,1,0-1.06.77.77,0,0,1,1-.59,4.44,4.44,0,0,0,1.32.06c-.34-.53-.95-.16-1.38-.52.85-1,1.81-1.05,2.68-2.05a13.79,13.79,0,0,0-3.17,1.73s1.34-4.07,1.09-5.49l-.47,1.81a1.65,1.65,0,0,1-.16.42l-.73,1.45a.77.77,0,0,1-.22.39c0-.85-.29-1.85-.31-1.51,0,1-.05,2.09-.1,3.13,0,.65-.1.69-.71.87l-.78.22a13.46,13.46,0,0,0-.38,3.42,6.41,6.41,0,0,1-.24,1.56c-.27,1-.62,2.05-.89,3.09a6.85,6.85,0,0,0,0,1q-.09.9-.27,1.8a.83.83,0,0,1-.33.42c-.82.56-1.66,1.09-2.48,1.65a5.34,5.34,0,0,0-.55.47c.1-.62.17-1.2.29-1.78a3,3,0,0,1,.33-1,6.12,6.12,0,0,1,.89-1l.93-.87a15.69,15.69,0,0,0-2.09,1.34,4,4,0,0,1,.41-1.57,33.6,33.6,0,0,0,1.37-3.14c-.22.35-.46.69-.67,1s-.43.76-.66,1.13a6.93,6.93,0,0,0-1,3.13,21.32,21.32,0,0,1-.6,3.36,2.24,2.24,0,0,1-.83,1c-.71.61-1.44,1.2-2.17,1.79,0-1.39,0-2.79,0-4.18a11.63,11.63,0,0,1,.42-3.89c.13-.38.16-.81.28-1.2.2-.66.41-1.33.66-2,.19-.46.48-.88.69-1.34.53-1.2,1-2.42,1.56-3.61a2.43,2.43,0,0,1,.71-1.07,20.7,20.7,0,0,1,3.07-1.49,6.75,6.75,0,0,0,2.71-1.87c.29-.32.62-.62.91-.94s.55-.63.83-.94c0,0-2.06,1.64-2.64,2.18a4,4,0,0,1-1.4.83,14.32,14.32,0,0,0,.71-2.37c-.19.38-.38.76-.58,1.13a6.18,6.18,0,0,1-.67,1.11,3,3,0,0,1-.9.61c-.52.27-1.06.5-1.63.76a6.18,6.18,0,0,0,.31-.65c.3-.95.59-1.9.9-2.84a.89.89,0,0,1,.31-.44q.81-.4,1.65-.75a7.47,7.47,0,0,0,1-.31c.88-.53,1.73-1.12,2.6-1.65l.18-.11a6.69,6.69,0,0,1,1.36-.6,44.18,44.18,0,0,1,6.88-1.06c.92,0,3.33-.33,3.33-.33a41,41,0,0,0-7,.07v-.81c0-.64,0-.71.63-.92,1-.34,2-.64,3-1l1-.35,0-.12-2.48.59a.8.8,0,0,1,.31-.32l6.73-4.14c.17-.11.95-.56.79-.88l-9.55,5.43a19.78,19.78,0,0,0,1-3.69c-.72,1.1-.52,2.05-1.23,3.14-.47-.32-.28-1-.88-1.19a4.47,4.47,0,0,0,.43,1.26.76.76,0,0,1-.31,1.11,4.6,4.6,0,0,1-1,.33A16.48,16.48,0,0,0,295,346.7c-.81.57-1.64,1.11-2.46,1.67l-.13-.11a5.86,5.86,0,0,1,.32-.67c1.11-1.85,2.21-3.7,3.36-5.53.34-.54.87-1,1.25-1.49a2,2,0,0,1,2.1-.93,3.26,3.26,0,0,0,1.93-.29c-.81-.14-1.64.27-2.48-.1a36.91,36.91,0,0,0,4.17-4.67.06.06,0,1,0-.09-.08c-1.16,1.11-3.05,2.92-4.23,4a7.49,7.49,0,0,0,.6-2.49s-.62,1.69-1,2.49a2.63,2.63,0,0,1-1.33,1.2c.1-.47.17-.82.24-1.18-.05,0-.1-.66-.25-.65.06-.95.07-1.2.14-2.26a14.32,14.32,0,0,0-.71,3.48,2.75,2.75,0,0,1-.4,1.57c-1.17,1.6-2.3,3.22-3.44,4.84a17.75,17.75,0,0,0-2.74,5.61,9.33,9.33,0,0,1-.66,1.95,57.11,57.11,0,0,0-2.92,5.73,20.51,20.51,0,0,1-1.08,2h-.15a1.34,1.34,0,0,1-.22-.47,15.06,15.06,0,0,1,0-1.9,38.89,38.89,0,0,0,.21-5.91,4.28,4.28,0,0,1,.63-3.09,3.86,3.86,0,0,0,.38-.93,6.6,6.6,0,0,1,.84-2.06,9.45,9.45,0,0,1,4.34-2.83,1,1,0,0,0,.77-.88l-1.79.45a6.87,6.87,0,0,1,0-1.75c.22-.92.6-1.8.91-2.7.15-.44.3-.87.42-1.32,0-.14-.05-.31-.07-.45l-1.19,2.72a5.36,5.36,0,0,0-.67,2.79,1.09,1.09,0,0,1-.69,1.34,6.79,6.79,0,0,0-.6.39l-1.45.85a2.93,2.93,0,0,1,0-.3c.14-.94.27-1.88.42-2.82a.86.86,0,0,1,.28-.51,12.94,12.94,0,0,1,1.09-.73l.65.52.07-.07a.87.87,0,0,0-.1-.24,1.05,1.05,0,0,1,0-1.44,2.39,2.39,0,0,0,.13-.21l.61-1.16-.11-.1a1.18,1.18,0,0,0-.32.26c-.25.39-.46.81-.71,1.19a8.55,8.55,0,0,1-.87,1.18.82.82,0,0,1-.72.19,7.63,7.63,0,0,1-1.12-1,.42.42,0,0,1,0-.65c.67-.88,1.32-1.79,2-2.7a4.6,4.6,0,0,0,.31-.53l-.1-.06-2.47,3.23c-.07-.1-.07-.15-.05-.19.39-1.06.74-2.13,1.19-3.16a13.37,13.37,0,0,1,2.32-3.92,10.85,10.85,0,0,0,1.93-2.8c.55-1.2,1-2.46,1.44-3.7a.7.7,0,0,0,0-.25.75.75,0,0,0-.41.34c-.26.61-.52,1.22-.75,1.84a11.71,11.71,0,0,1-1.59,2.94c-.43-.89-.83-1.71-1.24-2.52a1.86,1.86,0,0,0-.33-.41l-.13.08c.08.22.13.44.23.65.34.75.69,1.5,1.06,2.23a.36.36,0,0,1-.11.53,7,7,0,0,0-1.93,2.3c-.35.67-.74,1.32-1.11,2l-.16.23-.11-.05c.2-.8.39-1.61.59-2.41.39-1.52.79-3,1.18-4.55-.34-.16-.43,0-.49.2-.26,1-.52,2-.8,3-.16.54-.35,1.07-.57,1.71-.24-.39-.42-.67-.58-.95-.64-1.12-1.27-2.24-1.92-3.35a2.81,2.81,0,0,0-.4-.45l-.12.09.15.34c.7,1.34,1.38,2.69,2.1,4a2.5,2.5,0,0,1,.26,2,3.56,3.56,0,0,0-.14,1.33,2.75,2.75,0,0,1-.35,1.66c-.33-.41-.39-1-1-1.34a4.41,4.41,0,0,0,.2.53c.14.3.3.6.44.89.29.59.05,1-.61,1l-1.21-.06c0-.08-.06-.18-.08-.28-.44-2.06-.94-4.11-1.29-6.18-.31-1.79-.44-3.6-.67-5.4a4.12,4.12,0,0,1,.16-2,6,6,0,0,0,.2-1.06c-.56.22-.37.79-.64,1.16,0-.15-.08-.27-.11-.4-.16-.86-.33-1.72-.48-2.58-.05-.23-.12-.41-.43-.28,0,.07,0,.13,0,.2.19,1.16.45,2.32.57,3.49.15,1.39.16,2.8.27,4.19s.23,2.91.4,4.36a40.81,40.81,0,0,0,1.11,6.21,25,25,0,0,1,.7,2.77,37.1,37.1,0,0,1,.42,4.2c.08,2.43.07,4.86.1,7.3a1.49,1.49,0,0,1,0,.21l-.3,2c-.42-.12-.61-.32-.63-.7s-.11-.84-.14-1.26a4,4,0,0,0-.42-1.55c-.51-1-1-1.93-1.41-2.9a.7.7,0,0,1,.05-.53c.26-.46.58-.89.85-1.35s.24-.63.12-.85l-1.5,2.17c-.63-.73-1.21-1.33-1.71-2s-1-1.5-1.48-2.26a.29.29,0,0,1,0-.22c.13-.68.29-1.35.42-2a13.74,13.74,0,0,0,.4-2.26,20.86,20.86,0,0,0-.21-2.61,1,1,0,0,0-.14-.28l-.13,0c.05.72.14,1.44.15,2.16s-.08,1.39-.13,2.09l-.11,0-.84-1.38a13.29,13.29,0,0,1,.55,1.89,7.76,7.76,0,0,1-.34,1.92l-.15,0a16.13,16.13,0,0,1-1.39-2.83,16.51,16.51,0,0,0-1.8-4.18,1.64,1.64,0,0,1-.25-.7,11,11,0,0,1,0-1.91,20.72,20.72,0,0,0,.18-4.31c-.08-1.07-.15-2.14-.23-3.21-.25.06-.26.09-.24.56.05,1.29.13,2.57.12,3.86,0,.85-.15,1.69-.23,2.54H272l-.06-.36h-.08v5.89a2.66,2.66,0,0,1-.88-1.23c-.48-1.2-.27-2.5-.55-3.72a2.33,2.33,0,0,1,0-.59c.06-.94.13-1.88.19-2.82a2.83,2.83,0,0,0-.05-.5h-.12l-.24,2.52c-.28-.32-.12-.77-.57-1.07,0,.27,0,.44.08.6.1.51.24,1,.31,1.52a3.58,3.58,0,0,1,.09,1.48c-.36,1.12-.87,2.2-1.35,3.38l-.18-.22c-.62-1-1.25-2-1.86-3-.14-.22-.26-.33-.51-.11l.19.38,1.82,3.07a10.43,10.43,0,0,1,1.45,4.8c-.15-.12-.31-.22-.45-.33a18.59,18.59,0,0,0-2.86-2,7.15,7.15,0,0,1-2.7-2.86c-.8-1.53-1.45-3.15-2.15-4.73-.22-.48-.41-1-.61-1.43l-.13,0a1.64,1.64,0,0,0,0,.44c.12.34.28.68.41,1,.65,1.64,1.29,3.27,1.93,4.91a1.51,1.51,0,0,0,.15.28,11.61,11.61,0,0,0,2.9,3.19c.78.54,1.52,1.15,2.28,1.73.59.45,1.19.89,1.76,1.36a8.05,8.05,0,0,1,.79.86.69.69,0,0,0-.05.13c-.56.08-1.12.2-1.69.24s-1.16,0-1.74,0h-1.66v.08l2.36.15-1,1,.07.07.86-.71a1.43,1.43,0,0,1,.54-.29c.74-.11,1.5-.19,2.25-.25a.45.45,0,0,1,.35.15c.42.65.82,1.33,1.22,2a4.91,4.91,0,0,1-3,.34c-1.11-.25-2.25-.34-3.38-.51l-.08,0-.25-.21,0,0a6.81,6.81,0,0,1-.41-.63c-.35-.58-.68-1.16-1-1.73a1.7,1.7,0,0,0-.41-.33l0,.06c.52.95,1.05,1.89,1.61,2.9-.4,0-.68.06-.95.11a.84.84,0,0,0-.27.16c.1,0,.19.15.29.15.34,0,.69,0,1-.05s.42,0,.62,0a29.48,29.48,0,0,0,3.91,3.91c-.83.41-1.68.05-2.48.23a3.26,3.26,0,0,0,1.94.19,2,2,0,0,1,2.14.83c.41.5.95.9,1.32,1.43,1.24,1.76,2.43,3.56,3.64,5.36.13.2.23.43.35.65l-.13.11c-.85-.51-1.7-1-2.54-1.55A16.71,16.71,0,0,0,269,358.7a5.11,5.11,0,0,1-1-.27.77.77,0,0,1-.36-1.1,4.51,4.51,0,0,0,.37-1.28c-.6.21-.37.89-.83,1.23-.76-1-.6-2-1.38-3.07a19.69,19.69,0,0,0,1.2,3.63l-9.81-4.95c-.15.33.66.74.83.84l6.92,3.81a.72.72,0,0,1,.33.3l-2.5-.47,0,.12,1,.3c1,.27,2,.53,3,.82.62.18.65.25.68.89,0,.26,0,.52,0,.8a40.12,40.12,0,0,0-7,.28s2.42.17,3.35.16a27.2,27.2,0,0,1,6.9.71,6.57,6.57,0,0,1,1.46.59c.95.5,1.86,1.07,2.81,1.58a9.54,9.54,0,0,0,1,.26c.57.2,1.13.42,1.68.67a.76.76,0,0,1,.33.43c.36.92.7,1.86,1,2.78a5.62,5.62,0,0,0,.33.64c-.58-.23-1.13-.44-1.66-.68a3,3,0,0,1-.93-.56,6.15,6.15,0,0,1-.72-1.08c-.22-.36-.43-.73-.64-1.1a15.26,15.26,0,0,0,.83,2.33,4,4,0,0,1-1.44-.76c-.6-.51-2.7-2.08-2.74-2.05.29.3.57.61.87.9s.65.59.95.9a6.88,6.88,0,0,0,2.81,1.73,20.61,20.61,0,0,1,3.13,1.34,2.25,2.25,0,0,1,.76,1c.31.6.82,1.62,1.27,2.5a8.22,8.22,0,0,1,.87,3.54v0a52.09,52.09,0,0,1-.55,7.17c-.07.51-.13,1-.19,1.54ZM269.12,339.8h0c.17-.36.32-.74.49-1.11s.35-.76.54-1.17c.12.55.23,1.06.37,1.56a3,3,0,0,0,1,1.62,5.77,5.77,0,0,1,.61.7l-.09.11c-.11,0-.23-.07-.34-.12l-2.39-1.16c-.19-.1-.3-.2-.19-.43Zm3.11,6.39h0a2.71,2.71,0,0,1-2-2.54,9.74,9.74,0,0,0-.86-2.71c-.07-.15-.12-.31-.21-.53l.28.1c.78.41,1.56.82,2.35,1.22a.65.65,0,0,1,.4.54,9.1,9.1,0,0,1,.08,3.92ZM270,360.59h0l-1.2-.18c-.63-.11-.87-.44-.8-1.19l2,1.3a.25.25,0,0,1,0,.07Zm-.33-1.31h0a15.3,15.3,0,0,1,5.06,2.9c-1.68-1-3.54-1.64-5.06-2.9Zm30-14.6h0c-1.46,1.33-3.29,2.08-4.92,3.15a15.38,15.38,0,0,1,4.92-3.15Zm-15-3.38h0c.27-.52.59-1,.91-1.54a13,13,0,0,0,.94,1c.34.29.44.54.14.91a1.1,1.1,0,0,0-.17.4c-.22,1-.39,2-.68,3s-.63,1.77-1,2.76c-.16-1-.29-1.91-.42-2.81-.07-.48-.07-1-.18-1.45a3.13,3.13,0,0,1,.45-2.28Zm-1.85-2.42h0l1.66.21-.86,1.42h-.13c-.21-.52-.42-1-.67-1.64Zm-3.24,11.43h0c.43,1,.9,2.39,1.27,3.44a6.61,6.61,0,0,1,.16,1.49l-.09.05-.34-.4c-.45-.56-.92-1.11-1.34-1.69a1.16,1.16,0,0,1-.24-.75c.09-.62.28-1.22.43-1.83,0,0,.1-.32.15-.31Zm-4.87-6.95h0c.95,1.71,2,3.38,3,5a15.75,15.75,0,0,0,1.47,1.69c-.29.66-.57,1.32-.86,2a4.82,4.82,0,0,0-.56-1c-.59-.62-1.24-1.18-1.87-1.76a17.13,17.13,0,0,1-2.07-2,2.76,2.76,0,0,1-.45-1.76,17.62,17.62,0,0,0-.28-2.83c0-.12,0-.24,0-.41a1.93,1.93,0,0,1,1.63,1Zm1.85,9h0a22.38,22.38,0,0,1-3.85-4,11.85,11.85,0,0,1,3.85,4Zm-2.35-10.13h0c-.35-.07-.68-.13-1-.22a.33.33,0,0,1-.22-.17,16.86,16.86,0,0,1-.44-3.75,10.51,10.51,0,0,1,1.65,4.14Zm-7.59,7.71h0a17.09,17.09,0,0,1,2.64.6l.29.08a7.77,7.77,0,0,0,.72,2.41c-1-.8-2.48-2.07-3.65-3.09Zm4,3.07h0c-.33-.7-.93-2.1-1.06-2.38a5.07,5.07,0,0,0,2.19.08c.07.57.1.89.18,1.61-.15,0-.16.66-.22.66l.3,1.17a2.71,2.71,0,0,1-1.39-1.14Zm9.85,14.09h0a9,9,0,0,1-.75-1.91,17.65,17.65,0,0,0-3-5.47c-1.21-1.56-2.42-3.13-3.66-4.66a2.75,2.75,0,0,1-.48-1.55,21.15,21.15,0,0,0-.63-2.84c.1,0,.2-.05.3-.09a1.23,1.23,0,0,1,1.52.43,3.51,3.51,0,0,0,.33.34,11.26,11.26,0,0,0,2.79,2.4,8.71,8.71,0,0,1,2.93,3,3,3,0,0,0,.88.94,6,6,0,0,1,1.61,1.83.79.79,0,0,1,.09.38c0,.91,0,1.81,0,2.71,0,.65-.08,1.3,0,2,.06,1.37.23,2.75.27,4.12,0,.7,0,1.4,0,2.09-.69-1.24-1.46-2.43-2.2-3.65Zm14.05-4h0c.57-1.85.79-3.82,1.67-5.58a15.61,15.61,0,0,1-1.67,5.58Zm1.35-7.22h0c-.28.78-.54,1.53-.8,2.28l-.09,0c0-.41-.07-.81-.09-1.22,0-.64.23-.94,1-1Zm4.72-10.13h0c-.4.09-.8.16-1.2.24l0-.07,2-1.4C301.4,345.29,301.18,345.63,300.56,345.77Z" transform="translate(-252.74 -320.41)"/></g><g id="Stars-2" data-name="Stars"><path class="cls-5" d="M346.81,337.33,342,345.28h-9l4.52,7.54L333,360.35h9l4.77,7.95,4.77-7.95h9l-4.52-7.53,4.52-7.54h-9Zm0,4.27,2.21,3.68H344.6Zm-9.93,5.88h3.84l-1.92,3.2Zm6.4,0h7.05l3.21,5.34-3.21,5.33h-7.05l-3.2-5.33Zm9.62,0h3.84l-1.92,3.2ZM338.8,355l1.92,3.2h-3.84Zm16,0,1.92,3.2H352.9Zm-10.22,5.4H349L346.81,364Z" transform="translate(-252.74 -320.41)"/><path class="cls-5" d="M769.61,337,764.84,345h-9l4.52,7.54L755.8,360h9l4.77,8,4.77-8h9l-4.52-7.53,4.52-7.54h-9Zm0,4.27,2.2,3.68H767.4Zm-9.93,5.88h3.84l-1.92,3.2Zm6.4,0h7l3.21,5.34-3.21,5.33h-7l-3.2-5.33Zm9.62,0h3.84l-1.92,3.2Zm-14.1,7.47,1.92,3.2h-3.84Zm16,0,1.92,3.2H775.7ZM767.4,360h4.41l-2.2,3.68Z" transform="translate(-252.74 -320.41)"/></g></svg>